<svg width="188" height="80" viewBox="0 0 188 80" fill="none" xmlns="http://www.w3.org/2000/svg">
<g clip-path="url(#clip0_48_68)">
<path d="M83.3353 13.8463C83.3353 13.8213 83.3433 13.7963 83.3433 13.7723C83.3339 13.4328 83.1925 13.1104 82.949 12.8736C82.7056 12.6369 82.3794 12.5044 82.0398 12.5044C81.7002 12.5044 81.374 12.6369 81.1306 12.8736C80.8872 13.1104 80.7457 13.4328 80.7363 13.7723C80.7377 13.7954 80.7404 13.8185 80.7443 13.8413V34.1193C80.7403 34.1428 80.7376 34.1665 80.7363 34.1903C80.7457 34.5297 80.8872 34.8521 81.1306 35.0889C81.374 35.3257 81.7002 35.4582 82.0398 35.4582C82.3794 35.4582 82.7056 35.3257 82.949 35.0889C83.1925 34.8521 83.3339 34.5297 83.3433 34.1903C83.3433 34.1623 83.3353 34.1393 83.3353 34.1163V13.8463Z" fill="#072E6E"/>
<path d="M89.1235 13.8213C89.1264 13.8051 89.1281 13.7887 89.1285 13.7723C89.1285 13.4263 88.9911 13.0945 88.7465 12.8499C88.5018 12.6052 88.17 12.4678 87.824 12.4678C87.4781 12.4678 87.1462 12.6052 86.9016 12.8499C86.657 13.0945 86.5195 13.4263 86.5195 13.7723C86.5195 13.7883 86.5275 13.8053 86.5275 13.8213V24.0113C86.5275 24.0303 86.5195 24.0473 86.5195 24.0653C86.5195 24.4112 86.657 24.7431 86.9016 24.9877C87.1462 25.2323 87.4781 25.3698 87.824 25.3698C88.17 25.3698 88.5018 25.2323 88.7465 24.9877C88.9911 24.7431 89.1285 24.4112 89.1285 24.0653C89.1285 24.0443 89.1235 24.0203 89.1235 24.0003V13.8213Z" fill="#072E6E"/>
<path d="M94.8267 13.8603C94.8283 13.8307 94.8283 13.801 94.8267 13.7713C94.8173 13.4319 94.6759 13.1095 94.4324 12.8727C94.189 12.6359 93.8628 12.5034 93.5232 12.5034C93.1836 12.5034 92.8574 12.6359 92.614 12.8727C92.3706 13.1095 92.2291 13.4319 92.2197 13.7713C92.2197 13.8043 92.2277 13.8303 92.2277 13.8593V29.7383C92.2277 29.7673 92.2197 29.7943 92.2197 29.8273C92.2291 30.1668 92.3706 30.4892 92.614 30.7259C92.8574 30.9627 93.1836 31.0952 93.5232 31.0952C93.8628 31.0952 94.189 30.9627 94.4324 30.7259C94.6759 30.4892 94.8173 30.1668 94.8267 29.8273C94.8267 29.7943 94.8217 29.7673 94.8187 29.7383L94.8267 13.8603Z" fill="#072E6E"/>
<path d="M100.611 25.0503C100.611 25.0323 100.616 25.0163 100.616 24.9973C100.621 24.8231 100.591 24.6497 100.528 24.4873C100.464 24.325 100.369 24.1769 100.248 24.052C100.126 23.9271 99.9807 23.8278 99.8201 23.76C99.6596 23.6922 99.4871 23.6572 99.3128 23.6572C99.1385 23.6572 98.966 23.6922 98.8054 23.76C98.6449 23.8278 98.4996 23.9271 98.378 24.052C98.2565 24.1769 98.1613 24.325 98.0979 24.4873C98.0346 24.6497 98.0045 24.8231 98.0093 24.9973V34.1923C98.0045 34.3666 98.0346 34.54 98.0979 34.7023C98.1613 34.8647 98.2565 35.0127 98.378 35.1377C98.4996 35.2626 98.6449 35.3619 98.8054 35.4297C98.966 35.4975 99.1385 35.5324 99.3128 35.5324C99.4871 35.5324 99.6596 35.4975 99.8201 35.4297C99.9807 35.3619 100.126 35.2626 100.248 35.1377C100.369 35.0127 100.464 34.8647 100.528 34.7023C100.591 34.54 100.621 34.3666 100.616 34.1923C100.616 34.1733 100.611 34.1523 100.611 34.1333V25.0503Z" fill="#2F6E89"/>
<path d="M106.339 13.8463C106.339 13.8213 106.347 13.7963 106.347 13.7723C106.338 13.4328 106.196 13.1104 105.953 12.8736C105.71 12.6369 105.383 12.5044 105.044 12.5044C104.704 12.5044 104.378 12.6369 104.135 12.8736C103.891 13.1104 103.75 13.4328 103.74 13.7723V34.1903C103.75 34.5297 103.891 34.8521 104.135 35.0889C104.378 35.3257 104.704 35.4582 105.044 35.4582C105.383 35.4582 105.71 35.3257 105.953 35.0889C106.196 34.8521 106.338 34.5297 106.347 34.1903C106.346 34.1655 106.343 34.1408 106.339 34.1163V13.8463Z" fill="#2F6E89"/>
<path d="M24.0837 56.0049L17.6765 69.2654L11.3422 56.0049H8V71.9952H10.3729V59.003H10.4182L16.6238 71.9952H18.7313L24.9595 58.7337H25.0057V71.9952H27.3796V56.0049H24.0837Z" fill="#117094"/>
<path d="M35.4883 56H37.8632V71.9952H35.4883V56Z" fill="#117094"/>
<path d="M59.15 56.0049V68.7277H59.1028L48.8178 56.0049H46.0654V71.9962H48.4413V59.2723H48.4846L58.7696 71.9962H61.522V56.0049H59.15Z" fill="#117094"/>
<path d="M69.543 56.0049H77.6566C82.4496 56.0049 84.6436 59.1416 84.6436 63.7784C84.6436 68.2362 82.6973 72.0001 77.7893 72.0001H69.543V56.0049ZM77.6782 69.9397C81.5738 69.9397 82.2697 66.6703 82.2697 63.8236C82.2697 60.9985 81.3516 58.0652 77.229 58.0652H71.9208V69.9397H77.6782Z" fill="#117094"/>
<path d="M104.978 58.7416H104.938L100.523 71.9929H97.903L92.6436 56.0151H95.2148L99.3114 68.9993H99.3556L103.634 56.0151H106.457L110.845 68.9993H110.89L114.962 56.0151H117.426L112.01 71.9929H109.412L104.978 58.7416Z" fill="#0C2C6D"/>
<path d="M133.675 67.3375H125.845L123.808 71.9929H121.255L128.486 56.0151H131.193L138.425 71.9978H135.714L133.675 67.3375ZM129.738 58.2034L126.737 65.2749H132.803L129.738 58.2034Z" fill="#0C2C6D"/>
<path d="M144.623 56.0156H154.518C155.095 55.9647 155.675 56.0389 156.221 56.2331C156.766 56.4273 157.263 56.7369 157.677 57.1407C158.092 57.5446 158.414 58.0332 158.622 58.5732C158.831 59.1131 158.92 59.6917 158.884 60.2693C158.949 61.1333 158.719 61.9937 158.231 62.7094C157.742 63.4252 157.025 63.9535 156.197 64.2078V64.2529C157.607 64.4494 158.434 65.7743 158.526 67.6571C158.661 70.6331 158.749 71.3707 159.285 71.9973H156.777C156.398 71.5494 156.398 70.8786 156.286 68.9526C156.13 66.0857 155.167 65.2145 153.196 65.2145H146.994V71.9914H144.621L144.623 56.0156ZM153.622 63.1578C155.95 63.1578 156.512 61.7445 156.512 60.6258C156.512 59.1045 155.593 58.0722 153.689 58.0722H146.996V63.1549L153.622 63.1578Z" fill="#0C2C6D"/>
<path d="M166.002 56.0151H178.853V58.0777H168.378V62.7036H178.54V64.7662H168.378V69.9373H179.083V71.9998H166.002V56.0151Z" fill="#0C2C6D"/>
</g>
<defs>
<clipPath id="clip0_48_68">
<rect width="187.083" height="80.0001" fill="white"/>
</clipPath>
</defs>
</svg>
