<svg width="236" height="48" viewBox="0 0 236 48" fill="none" xmlns="http://www.w3.org/2000/svg">
<g clip-path="url(#clip0_48_39)">
<path d="M13.7933 13.8463C13.7933 13.8213 13.8013 13.7963 13.8013 13.7723C13.7919 13.4328 13.6505 13.1104 13.4071 12.8736C13.1636 12.6369 12.8374 12.5044 12.4978 12.5044C12.1583 12.5044 11.8321 12.6369 11.5886 12.8736C11.3452 13.1104 11.2037 13.4328 11.1943 13.7723C11.1957 13.7954 11.1984 13.8185 11.2023 13.8413V34.1193C11.1983 34.1428 11.1956 34.1665 11.1943 34.1903C11.2037 34.5297 11.3452 34.8521 11.5886 35.0889C11.8321 35.3257 12.1583 35.4582 12.4978 35.4582C12.8374 35.4582 13.1636 35.3257 13.4071 35.0889C13.6505 34.8521 13.7919 34.5297 13.8013 34.1903C13.8013 34.1623 13.7933 34.1393 13.7933 34.1163V13.8463Z" fill="#072E6E"/>
<path d="M19.5815 13.8213C19.5844 13.8051 19.5861 13.7887 19.5865 13.7723C19.5865 13.4263 19.4491 13.0945 19.2045 12.8499C18.9598 12.6052 18.628 12.4678 18.282 12.4678C17.9361 12.4678 17.6043 12.6052 17.3596 12.8499C17.115 13.0945 16.9775 13.4263 16.9775 13.7723C16.9775 13.7883 16.9855 13.8053 16.9855 13.8213V24.0113C16.9855 24.0303 16.9775 24.0473 16.9775 24.0653C16.9775 24.4112 17.115 24.7431 17.3596 24.9877C17.6043 25.2323 17.9361 25.3698 18.282 25.3698C18.628 25.3698 18.9598 25.2323 19.2045 24.9877C19.4491 24.7431 19.5865 24.4112 19.5865 24.0653C19.5865 24.0443 19.5815 24.0203 19.5815 24.0003V13.8213Z" fill="#072E6E"/>
<path d="M25.2847 13.8603C25.2863 13.8307 25.2863 13.801 25.2847 13.7713C25.2753 13.4319 25.1339 13.1095 24.8904 12.8727C24.647 12.6359 24.3208 12.5034 23.9812 12.5034C23.6416 12.5034 23.3154 12.6359 23.072 12.8727C22.8286 13.1095 22.6871 13.4319 22.6777 13.7713C22.6777 13.8043 22.6857 13.8303 22.6857 13.8593V29.7383C22.6857 29.7673 22.6777 29.7943 22.6777 29.8273C22.6871 30.1668 22.8286 30.4892 23.072 30.7259C23.3154 30.9627 23.6416 31.0952 23.9812 31.0952C24.3208 31.0952 24.647 30.9627 24.8904 30.7259C25.1339 30.4892 25.2753 30.1668 25.2847 29.8273C25.2847 29.7943 25.2797 29.7673 25.2767 29.7383L25.2847 13.8603Z" fill="#072E6E"/>
<path d="M31.0693 25.0503C31.0693 25.0323 31.0743 25.0163 31.0743 24.9973C31.0791 24.8231 31.049 24.6497 30.9856 24.4873C30.9223 24.325 30.8271 24.1769 30.7055 24.052C30.584 23.9271 30.4387 23.8278 30.2781 23.76C30.1176 23.6922 29.9451 23.6572 29.7708 23.6572C29.5965 23.6572 29.424 23.6922 29.2634 23.76C29.1029 23.8278 28.9576 23.9271 28.836 24.052C28.7145 24.1769 28.6193 24.325 28.556 24.4873C28.4926 24.6497 28.4625 24.8231 28.4673 24.9973V34.1923C28.4625 34.3666 28.4926 34.54 28.556 34.7023C28.6193 34.8647 28.7145 35.0127 28.836 35.1377C28.9576 35.2626 29.1029 35.3619 29.2634 35.4297C29.424 35.4975 29.5965 35.5324 29.7708 35.5324C29.9451 35.5324 30.1176 35.4975 30.2781 35.4297C30.4387 35.3619 30.584 35.2626 30.7055 35.1377C30.8271 35.0127 30.9223 34.8647 30.9856 34.7023C31.049 34.54 31.0791 34.3666 31.0743 34.1923C31.0743 34.1733 31.0693 34.1523 31.0693 34.1333V25.0503Z" fill="#2F6E89"/>
<path d="M36.7972 13.8463C36.7972 13.8213 36.8052 13.7963 36.8052 13.7723C36.7958 13.4328 36.6544 13.1104 36.411 12.8736C36.1675 12.6369 35.8413 12.5044 35.5017 12.5044C35.1622 12.5044 34.836 12.6369 34.5925 12.8736C34.3491 13.1104 34.2076 13.4328 34.1982 13.7723V34.1903C34.2076 34.5297 34.3491 34.8521 34.5925 35.0889C34.836 35.3257 35.1622 35.4582 35.5017 35.4582C35.8413 35.4582 36.1675 35.3257 36.411 35.0889C36.6544 34.8521 36.7958 34.5297 36.8052 34.1903C36.8041 34.1655 36.8014 34.1408 36.7972 34.1163V13.8463Z" fill="#2F6E89"/>
<path d="M72.0837 16.0049L65.6765 29.2654L59.3422 16.0049H56V31.9952H58.3729V19.003H58.4182L64.6238 31.9952H66.7313L72.9595 18.7337H73.0057V31.9952H75.3796V16.0049H72.0837Z" fill="#117094"/>
<path d="M83.4883 16H85.8632V31.9952H83.4883V16Z" fill="#117094"/>
<path d="M107.15 16.0049V28.7277H107.103L96.8178 16.0049H94.0654V31.9962H96.4413V19.2723H96.4846L106.77 31.9962H109.522V16.0049H107.15Z" fill="#117094"/>
<path d="M117.543 16.0049H125.657C130.45 16.0049 132.644 19.1416 132.644 23.7784C132.644 28.2362 130.697 32.0001 125.789 32.0001H117.543V16.0049ZM125.678 29.9397C129.574 29.9397 130.27 26.6703 130.27 23.8236C130.27 20.9985 129.352 18.0652 125.229 18.0652H119.921V29.9397H125.678Z" fill="#117094"/>
<path d="M152.978 18.7416H152.938L148.523 31.9929H145.903L140.644 16.0151H143.215L147.311 28.9993H147.356L151.634 16.0151H154.457L158.845 28.9993H158.89L162.962 16.0151H165.426L160.01 31.9929H157.412L152.978 18.7416Z" fill="#0C2C6D"/>
<path d="M181.675 27.3375H173.845L171.808 31.9929H169.255L176.486 16.0151H179.193L186.425 31.9978H183.714L181.675 27.3375ZM177.738 18.2034L174.737 25.2749H180.803L177.738 18.2034Z" fill="#0C2C6D"/>
<path d="M192.623 16.0156H202.518C203.095 15.9647 203.675 16.0389 204.221 16.2331C204.766 16.4273 205.263 16.7369 205.677 17.1407C206.092 17.5446 206.414 18.0332 206.622 18.5732C206.831 19.1131 206.92 19.6917 206.884 20.2693C206.949 21.1333 206.719 21.9937 206.231 22.7094C205.742 23.4252 205.025 23.9535 204.197 24.2078V24.2529C205.607 24.4494 206.434 25.7743 206.526 27.6571C206.661 30.6331 206.749 31.3707 207.285 31.9973H204.777C204.398 31.5494 204.398 30.8786 204.286 28.9526C204.13 26.0857 203.167 25.2145 201.196 25.2145H194.994V31.9914H192.621L192.623 16.0156ZM201.622 23.1578C203.95 23.1578 204.512 21.7445 204.512 20.6258C204.512 19.1045 203.593 18.0722 201.689 18.0722H194.996V23.1549L201.622 23.1578Z" fill="#0C2C6D"/>
<path d="M214.002 16.0151H226.853V18.0777H216.378V22.7036H226.54V24.7662H216.378V29.9373H227.083V31.9998H214.002V16.0151Z" fill="#0C2C6D"/>
</g>
<defs>
<clipPath id="clip0_48_39">
<rect width="235.083" height="48" fill="white"/>
</clipPath>
</defs>
</svg>
