<svg width="188" height="80" viewBox="0 0 188 80" fill="none" xmlns="http://www.w3.org/2000/svg">
<g clip-path="url(#clip0_1_27)">
<path d="M83.3353 13.8463C83.3353 13.8213 83.3433 13.7963 83.3433 13.7723C83.3339 13.4328 83.1925 13.1104 82.949 12.8736C82.7056 12.6369 82.3794 12.5044 82.0398 12.5044C81.7002 12.5044 81.374 12.6369 81.1306 12.8736C80.8872 13.1104 80.7457 13.4328 80.7363 13.7723C80.7377 13.7954 80.7404 13.8185 80.7443 13.8413V34.1193C80.7403 34.1428 80.7376 34.1665 80.7363 34.1903C80.7457 34.5297 80.8872 34.8521 81.1306 35.0889C81.374 35.3257 81.7002 35.4582 82.0398 35.4582C82.3794 35.4582 82.7056 35.3257 82.949 35.0889C83.1925 34.8521 83.3339 34.5297 83.3433 34.1903C83.3433 34.1623 83.3353 34.1393 83.3353 34.1163V13.8463Z" fill="#072E6E"/>
<path d="M89.1235 13.8213C89.1264 13.8051 89.1281 13.7887 89.1285 13.7723C89.1285 13.4263 88.9911 13.0945 88.7465 12.8499C88.5018 12.6052 88.17 12.4678 87.824 12.4678C87.4781 12.4678 87.1462 12.6052 86.9016 12.8499C86.657 13.0945 86.5195 13.4263 86.5195 13.7723C86.5195 13.7883 86.5275 13.8053 86.5275 13.8213V24.0113C86.5275 24.0303 86.5195 24.0473 86.5195 24.0653C86.5195 24.4112 86.657 24.7431 86.9016 24.9877C87.1462 25.2323 87.4781 25.3698 87.824 25.3698C88.17 25.3698 88.5018 25.2323 88.7465 24.9877C88.9911 24.7431 89.1285 24.4112 89.1285 24.0653C89.1285 24.0443 89.1235 24.0203 89.1235 24.0003V13.8213Z" fill="#072E6E"/>
<path d="M94.8267 13.8603C94.8283 13.8307 94.8283 13.801 94.8267 13.7713C94.8173 13.4319 94.6759 13.1095 94.4324 12.8727C94.189 12.6359 93.8628 12.5034 93.5232 12.5034C93.1836 12.5034 92.8574 12.6359 92.614 12.8727C92.3706 13.1095 92.2291 13.4319 92.2197 13.7713C92.2197 13.8043 92.2277 13.8303 92.2277 13.8593V29.7383C92.2277 29.7673 92.2197 29.7943 92.2197 29.8273C92.2291 30.1668 92.3706 30.4892 92.614 30.7259C92.8574 30.9627 93.1836 31.0952 93.5232 31.0952C93.8628 31.0952 94.189 30.9627 94.4324 30.7259C94.6759 30.4892 94.8173 30.1668 94.8267 29.8273C94.8267 29.7943 94.8217 29.7673 94.8187 29.7383L94.8267 13.8603Z" fill="#072E6E"/>
<path d="M100.611 25.0503C100.611 25.0323 100.616 25.0163 100.616 24.9973C100.621 24.8231 100.591 24.6497 100.528 24.4873C100.464 24.325 100.369 24.1769 100.248 24.052C100.126 23.9271 99.9807 23.8278 99.8201 23.76C99.6596 23.6922 99.4871 23.6572 99.3128 23.6572C99.1385 23.6572 98.966 23.6922 98.8054 23.76C98.6449 23.8278 98.4996 23.9271 98.378 24.052C98.2565 24.1769 98.1613 24.325 98.0979 24.4873C98.0346 24.6497 98.0045 24.8231 98.0093 24.9973V34.1923C98.0045 34.3666 98.0346 34.54 98.0979 34.7023C98.1613 34.8647 98.2565 35.0127 98.378 35.1377C98.4996 35.2626 98.6449 35.3619 98.8054 35.4297C98.966 35.4975 99.1385 35.5324 99.3128 35.5324C99.4871 35.5324 99.6596 35.4975 99.8201 35.4297C99.9807 35.3619 100.126 35.2626 100.248 35.1377C100.369 35.0127 100.464 34.8647 100.528 34.7023C100.591 34.54 100.621 34.3666 100.616 34.1923C100.616 34.1733 100.611 34.1523 100.611 34.1333V25.0503Z" fill="#2F6E89"/>
<path d="M106.339 13.8463C106.339 13.8213 106.347 13.7963 106.347 13.7723C106.338 13.4328 106.196 13.1104 105.953 12.8736C105.71 12.6369 105.383 12.5044 105.044 12.5044C104.704 12.5044 104.378 12.6369 104.135 12.8736C103.891 13.1104 103.75 13.4328 103.74 13.7723V34.1903C103.75 34.5297 103.891 34.8521 104.135 35.0889C104.378 35.3257 104.704 35.4582 105.044 35.4582C105.383 35.4582 105.71 35.3257 105.953 35.0889C106.196 34.8521 106.338 34.5297 106.347 34.1903C106.346 34.1655 106.343 34.1408 106.339 34.1163V13.8463Z" fill="#2F6E89"/>
<path d="M16.843 71.5H14.6932L10.1246 58.0633V71.5H8.19871V55.4655H11.0204L15.7905 69.4173L20.4486 55.4655H23.2927V71.5H21.3444V58.0633L16.843 71.5ZM34.5205 55.4655V71.5H32.4378V55.4655H34.5205ZM55.9395 55.4655V71.5H53.6553L45.3469 58.4888V71.5H43.4209V55.4655H45.638L54.0136 68.5663V55.4655H55.9395ZM64.9418 71.5V55.4655H71.1227C73.2875 55.4655 74.9522 56.2717 76.1167 57.8841C77.132 59.3024 77.6396 61.1687 77.6396 63.4828C77.6396 66.1403 76.9827 68.1856 75.6688 69.6189C74.5193 70.873 73.0039 71.5 71.1227 71.5H64.9418ZM66.9797 69.6861H70.7644C73.9892 69.6861 75.6017 67.6183 75.6017 63.4828C75.6017 59.3472 73.9892 57.2795 70.7644 57.2795H66.9797V69.6861Z" fill="#072E6E"/>
<path d="M92.8676 71.5H90.6505L84.8951 55.4655H87.0898L91.815 69.0366L96.2492 55.4655H98.4214L92.8676 71.5ZM108.304 64.1994V69.6861H117.754V71.5H106.266V55.4655H117.373V57.2795H108.304V62.3854H117.038V64.1994H108.304ZM128.42 64.6025V71.5H126.382V55.4655H133.75C135.452 55.4655 136.721 55.8835 137.557 56.7196C138.289 57.4511 138.654 58.4664 138.654 59.7653C138.654 60.676 138.453 61.4299 138.05 62.0271C137.662 62.6243 137.012 63.1468 136.101 63.5947C136.833 63.8784 137.37 64.2591 137.714 64.7369C138.057 65.2295 138.251 66.2373 138.296 67.7601C138.326 68.8799 138.393 69.6338 138.498 70.022C138.617 70.3952 138.871 70.7162 139.259 70.985V71.5H136.796C136.467 70.8133 136.303 70.0892 136.303 69.3278L136.325 66.8196C136.325 66.6553 136.258 66.4015 136.124 66.0581C135.989 65.7148 135.863 65.4684 135.743 65.3191C135.34 64.8414 134.653 64.6025 133.683 64.6025H128.42ZM128.42 62.7885H133.369C135.474 62.7885 136.527 61.8704 136.527 60.034C136.527 58.1976 135.474 57.2795 133.369 57.2795H128.42V62.7885ZM158.697 60.0788H156.771C156.727 57.9886 155.39 56.9435 152.763 56.9435C151.688 56.9435 150.822 57.1899 150.165 57.6826C149.508 58.1603 149.18 58.7948 149.18 59.5861C149.18 60.1833 149.374 60.661 149.762 61.0194C150.165 61.3627 150.852 61.6613 151.822 61.9151L155.629 62.9005C158.048 63.5425 159.257 64.8862 159.257 66.9315C159.257 68.4096 158.667 69.6114 157.488 70.5371C156.443 71.3433 154.942 71.7464 152.987 71.7464C150.508 71.7464 148.709 70.9999 147.59 69.5069C146.992 68.7007 146.679 67.6183 146.649 66.2597H148.575V66.3045C148.575 67.469 148.971 68.3723 149.762 69.0142C150.568 69.6413 151.688 69.9548 153.121 69.9548C154.435 69.9548 155.413 69.7383 156.055 69.3054C156.816 68.7828 157.197 68.0513 157.197 67.1107C157.197 65.9163 156.219 65.0728 154.263 64.5801L150.277 63.5499C148.187 63.0125 147.142 61.7808 147.142 59.8548C147.142 58.332 147.716 57.1525 148.866 56.3165C149.866 55.5849 151.188 55.2191 152.83 55.2191C155.159 55.2191 156.824 55.8984 157.824 57.2571C158.406 58.0483 158.697 58.9068 158.697 59.8324C158.697 59.8772 158.697 59.9593 158.697 60.0788ZM169.654 64.1994V69.6861H179.105V71.5H167.616V55.4655H178.724V57.2795H169.654V62.3854H178.388V64.1994H169.654Z" fill="#117094"/>
</g>
<defs>
<clipPath id="clip0_1_27">
<rect width="188" height="80" fill="white"/>
</clipPath>
</defs>
</svg>
