<svg width="236" height="48" viewBox="0 0 236 48" fill="none" xmlns="http://www.w3.org/2000/svg">
<path d="M13.7933 13.8463C13.7933 13.8213 13.8013 13.7963 13.8013 13.7723C13.7919 13.4328 13.6505 13.1104 13.4071 12.8736C13.1636 12.6369 12.8374 12.5044 12.4978 12.5044C12.1583 12.5044 11.8321 12.6369 11.5886 12.8736C11.3452 13.1104 11.2037 13.4328 11.1943 13.7723C11.1957 13.7954 11.1984 13.8185 11.2023 13.8413V34.1193C11.1983 34.1428 11.1956 34.1665 11.1943 34.1903C11.2037 34.5297 11.3452 34.8521 11.5886 35.0889C11.8321 35.3257 12.1583 35.4582 12.4978 35.4582C12.8374 35.4582 13.1636 35.3257 13.4071 35.0889C13.6505 34.8521 13.7919 34.5297 13.8013 34.1903C13.8013 34.1623 13.7933 34.1393 13.7933 34.1163V13.8463Z" fill="#072E6E"/>
<path d="M19.5815 13.8213C19.5844 13.8051 19.5861 13.7887 19.5865 13.7723C19.5865 13.4263 19.4491 13.0945 19.2045 12.8499C18.9598 12.6052 18.628 12.4678 18.282 12.4678C17.9361 12.4678 17.6043 12.6052 17.3596 12.8499C17.115 13.0945 16.9775 13.4263 16.9775 13.7723C16.9775 13.7883 16.9855 13.8053 16.9855 13.8213V24.0113C16.9855 24.0303 16.9775 24.0473 16.9775 24.0653C16.9775 24.4112 17.115 24.7431 17.3596 24.9877C17.6043 25.2323 17.9361 25.3698 18.282 25.3698C18.628 25.3698 18.9598 25.2323 19.2045 24.9877C19.4491 24.7431 19.5865 24.4112 19.5865 24.0653C19.5865 24.0443 19.5815 24.0203 19.5815 24.0003V13.8213Z" fill="#072E6E"/>
<path d="M25.2847 13.8603C25.2863 13.8307 25.2863 13.801 25.2847 13.7713C25.2753 13.4319 25.1339 13.1095 24.8904 12.8727C24.647 12.6359 24.3208 12.5034 23.9812 12.5034C23.6416 12.5034 23.3154 12.6359 23.072 12.8727C22.8286 13.1095 22.6871 13.4319 22.6777 13.7713C22.6777 13.8043 22.6857 13.8303 22.6857 13.8593V29.7383C22.6857 29.7673 22.6777 29.7943 22.6777 29.8273C22.6871 30.1668 22.8286 30.4892 23.072 30.7259C23.3154 30.9627 23.6416 31.0952 23.9812 31.0952C24.3208 31.0952 24.647 30.9627 24.8904 30.7259C25.1339 30.4892 25.2753 30.1668 25.2847 29.8273C25.2847 29.7943 25.2797 29.7673 25.2767 29.7383L25.2847 13.8603Z" fill="#072E6E"/>
<path d="M31.0693 25.0503C31.0693 25.0323 31.0743 25.0163 31.0743 24.9973C31.0791 24.8231 31.049 24.6497 30.9856 24.4873C30.9223 24.325 30.8271 24.1769 30.7055 24.052C30.584 23.9271 30.4387 23.8278 30.2781 23.76C30.1176 23.6922 29.9451 23.6572 29.7708 23.6572C29.5965 23.6572 29.424 23.6922 29.2634 23.76C29.1029 23.8278 28.9576 23.9271 28.836 24.052C28.7145 24.1769 28.6193 24.325 28.556 24.4873C28.4926 24.6497 28.4625 24.8231 28.4673 24.9973V34.1923C28.4625 34.3666 28.4926 34.54 28.556 34.7023C28.6193 34.8647 28.7145 35.0127 28.836 35.1377C28.9576 35.2626 29.1029 35.3619 29.2634 35.4297C29.424 35.4975 29.5965 35.5324 29.7708 35.5324C29.9451 35.5324 30.1176 35.4975 30.2781 35.4297C30.4387 35.3619 30.584 35.2626 30.7055 35.1377C30.8271 35.0127 30.9223 34.8647 30.9856 34.7023C31.049 34.54 31.0791 34.3666 31.0743 34.1923C31.0743 34.1733 31.0693 34.1523 31.0693 34.1333V25.0503Z" fill="#117094"/>
<path d="M36.7972 13.8463C36.7972 13.8213 36.8052 13.7963 36.8052 13.7723C36.7958 13.4328 36.6544 13.1104 36.411 12.8736C36.1675 12.6369 35.8413 12.5044 35.5017 12.5044C35.1622 12.5044 34.836 12.6369 34.5925 12.8736C34.3491 13.1104 34.2076 13.4328 34.1982 13.7723V34.1903C34.2076 34.5297 34.3491 34.8521 34.5925 35.0889C34.836 35.3257 35.1622 35.4582 35.5017 35.4582C35.8413 35.4582 36.1675 35.3257 36.411 35.0889C36.6544 34.8521 36.7958 34.5297 36.8052 34.1903C36.8041 34.1655 36.8014 34.1408 36.7972 34.1163V13.8463Z" fill="#117094"/>
<path d="M64.3015 32H62.1516L57.5831 18.5632V32H55.6572V15.9654H58.4789L63.249 29.9173L67.9071 15.9654H70.7512V32H68.8029V18.5632L64.3015 32ZM81.9789 15.9654V32H79.8962V15.9654H81.9789ZM103.398 15.9654V32H101.114L92.8054 18.9887V32H90.8794V15.9654H93.0965L101.472 29.0663V15.9654H103.398ZM112.4 32V15.9654H118.581C120.746 15.9654 122.411 16.7716 123.575 18.3841C124.59 19.8024 125.098 21.6686 125.098 23.9827C125.098 26.6402 124.441 28.6856 123.127 30.1189C121.978 31.373 120.462 32 118.581 32H112.4ZM114.438 30.186H118.223C121.448 30.186 123.06 28.1183 123.06 23.9827C123.06 19.8472 121.448 17.7794 118.223 17.7794H114.438V30.186Z" fill="#072E6E"/>
<path d="M140.326 32H138.109L132.354 15.9654H134.548L139.274 29.5366L143.708 15.9654H145.88L140.326 32ZM155.762 24.6993V30.186H165.213V32H153.724V15.9654H164.832V17.7794H155.762V22.8854H164.496V24.6993H155.762ZM175.879 25.1025V32H173.841V15.9654H181.209C182.911 15.9654 184.18 16.3835 185.016 17.2195C185.747 17.9511 186.113 18.9663 186.113 20.2652C186.113 21.1759 185.911 21.9299 185.508 22.5271C185.12 23.1243 184.471 23.6468 183.56 24.0947C184.292 24.3784 184.829 24.7591 185.172 25.2368C185.516 25.7295 185.71 26.7373 185.755 28.2601C185.784 29.3798 185.852 30.1338 185.956 30.522C186.076 30.8952 186.329 31.2162 186.718 31.4849V32H184.254C183.926 31.3132 183.762 30.5891 183.762 29.8277L183.784 27.3195C183.784 27.1553 183.717 26.9015 183.582 26.5581C183.448 26.2147 183.321 25.9684 183.202 25.8191C182.799 25.3413 182.112 25.1025 181.141 25.1025H175.879ZM175.879 23.2885H180.828C182.933 23.2885 183.985 22.3703 183.985 20.5339C183.985 18.6976 182.933 17.7794 180.828 17.7794H175.879V23.2885ZM206.156 20.5787H204.23C204.185 18.4886 202.849 17.4435 200.221 17.4435C199.146 17.4435 198.28 17.6898 197.623 18.1825C196.967 18.6603 196.638 19.2948 196.638 20.0861C196.638 20.6832 196.832 21.161 197.22 21.5193C197.623 21.8627 198.31 22.1613 199.281 22.4151L203.088 23.4005C205.506 24.0424 206.716 25.3861 206.716 27.4315C206.716 28.9095 206.126 30.1114 204.946 31.037C203.901 31.8432 202.401 32.2463 200.445 32.2463C197.967 32.2463 196.168 31.4999 195.048 30.0069C194.451 29.2007 194.137 28.1183 194.107 26.7597H196.033V26.8044C196.033 27.969 196.429 28.8722 197.22 29.5142C198.027 30.1412 199.146 30.4548 200.58 30.4548C201.893 30.4548 202.871 30.2383 203.513 29.8053C204.275 29.2828 204.655 28.5512 204.655 27.6107C204.655 26.4163 203.677 25.5727 201.722 25.0801L197.735 24.0499C195.645 23.5124 194.6 22.2807 194.6 20.3548C194.6 18.832 195.175 17.6525 196.325 16.8164C197.325 16.0849 198.646 15.7191 200.288 15.7191C202.617 15.7191 204.282 16.3984 205.282 17.757C205.865 18.5483 206.156 19.4067 206.156 20.3324C206.156 20.3772 206.156 20.4593 206.156 20.5787ZM217.113 24.6993V30.186H226.563V32H215.075V15.9654H226.183V17.7794H217.113V22.8854H225.847V24.6993H217.113Z" fill="#117094"/>
</svg>
